<?xml version="1.0" encoding="utf-8"?>
<!-- Generator: Adobe Illustrator 16.0.4, SVG Export Plug-In . SVG Version: 6.00 Build 0)  -->
<!DOCTYPE svg PUBLIC "-//W3C//DTD SVG 1.1//EN" "http://www.w3.org/Graphics/SVG/1.1/DTD/svg11.dtd">
<svg version="1.1" id="Layer_1" xmlns="http://www.w3.org/2000/svg" xmlns:xlink="http://www.w3.org/1999/xlink" x="0px" y="0px"
	 width="400px" height="400px" viewBox="0 0 400 400" enable-background="new 0 0 400 400" xml:space="preserve">
<g>
	<polygon points="136.886,269.522 129.564,280.15 122.245,269.522 116.113,269.522 126.499,284.6 116.113,299.68 122.245,299.68 
		129.564,289.051 136.886,299.68 143.018,299.68 132.631,284.6 143.018,269.522 	"/>
	<polygon points="218.009,269.522 210.688,280.15 203.369,269.522 197.238,269.522 207.624,284.6 197.238,299.68 203.369,299.68 
		210.688,289.05 218.009,299.68 224.139,299.68 213.753,284.6 224.139,269.522 	"/>
	<path d="M170.127,276.021l5.104,11.923h-10.208L170.127,276.021z M167.345,269.522l-12.913,30.157H160l2.639-6.167h14.978
		l2.64,6.167h5.566l-12.914-30.157H167.345z"/>
	<rect x="239.601" y="269.521" width="5.571" height="30.158"/>
	<path d="M274.261,282.203c-5.732-1.373-7.108-2.4-7.108-4.75c0-2.012,1.806-3.597,4.882-3.597c2.743,0,5.435,1.07,8.129,3.083
		l2.823-3.979c-3.037-2.441-6.505-3.762-10.865-3.762c-5.947,0-10.229,3.511-10.229,8.723c0,5.564,3.597,7.45,9.977,8.983
		c5.559,1.287,6.759,2.444,6.759,4.628c0,2.303-2.056,3.806-5.306,3.806c-3.725,0-6.592-1.408-9.457-3.892l-3.17,3.764
		c3.595,3.212,7.915,4.79,12.492,4.79c6.293,0,10.7-3.335,10.7-8.982C283.887,286.007,280.593,283.748,274.261,282.203"/>
	<path d="M159.101,221.146c0,2.764-2.241,5.009-5.001,5.009c-2.757,0-4.999-2.245-4.999-5.009c0-2.755,2.242-4.991,4.999-4.991
		C156.859,216.154,159.101,218.391,159.101,221.146"/>
	<path d="M189.066,209.503c0,2.763-2.238,5.006-5.001,5.006c-2.756,0-4.997-2.243-4.997-5.006c0-2.758,2.241-4.993,4.997-4.993
		C186.828,204.51,189.066,206.745,189.066,209.503"/>
	<path d="M239.103,204.002c0,2.763-2.239,5.007-5.001,5.007c-2.756,0-4.998-2.244-4.998-5.007c0-2.757,2.242-4.992,4.998-4.992
		C236.863,199.01,239.103,201.245,239.103,204.002"/>
	<path d="M258.673,226.066c0,2.765-2.238,5.007-5.002,5.007c-2.757,0-4.997-2.242-4.997-5.007c0-2.755,2.24-4.991,4.997-4.991
		C256.435,221.075,258.673,223.312,258.673,226.066"/>
	<path d="M221.604,172.447c0,2.763-2.24,5.006-5.003,5.006c-2.758,0-4.997-2.243-4.997-5.006c0-2.758,2.239-4.992,4.997-4.992
		C219.363,167.455,221.604,169.689,221.604,172.447"/>
	<path d="M221.604,142.806c0,2.764-2.24,5.007-5.003,5.007c-2.758,0-4.997-2.243-4.997-5.007c0-2.756,2.239-4.991,4.997-4.991
		C219.363,137.814,221.604,140.05,221.604,142.806"/>
	<path d="M251.506,131.19c0,2.763-2.241,5.006-5.002,5.006c-2.758,0-4.997-2.243-4.997-5.006c0-2.758,2.239-4.994,4.997-4.994
		C249.265,126.196,251.506,128.433,251.506,131.19"/>
	<path d="M151.933,126.269c0,2.764-2.241,5.008-5.002,5.008c-2.756,0-4.996-2.244-4.996-5.008c0-2.757,2.24-4.993,4.996-4.993
		C149.691,121.275,151.933,123.512,151.933,126.269"/>
	<path d="M171.502,148.331c0,2.763-2.24,5.006-5.002,5.006c-2.757,0-4.998-2.243-4.998-5.006c0-2.758,2.241-4.994,4.998-4.994
		C169.262,143.337,171.502,145.573,171.502,148.331"/>
	<path d="M189.745,179.886c0,2.763-2.24,5.006-5.002,5.006c-2.758,0-4.998-2.243-4.998-5.006c0-2.758,2.24-4.992,4.998-4.992
		C187.505,174.894,189.745,177.128,189.745,179.886"/>
	<path d="M206.436,155.124c0,2.764-2.238,5.007-5.001,5.007c-2.758,0-4.998-2.243-4.998-5.007c0-2.757,2.24-4.994,4.998-4.994
		C204.197,150.13,206.436,152.367,206.436,155.124"/>
	<path d="M227.319,240.712c0,0.727-0.589,1.314-1.319,1.314c-0.716,0-1.312-0.588-1.312-1.314s0.596-1.316,1.312-1.316
		C226.73,239.396,227.319,239.985,227.319,240.712"/>
	<path d="M269.987,237.715c0,0.727-0.59,1.314-1.32,1.314c-0.718,0-1.312-0.588-1.312-1.314c0-0.729,0.595-1.317,1.312-1.317
		C269.397,236.397,269.987,236.986,269.987,237.715"/>
	<path d="M245.217,226.734c0,0.726-0.592,1.315-1.319,1.315c-0.717,0-1.313-0.59-1.313-1.315c0-0.728,0.597-1.317,1.313-1.317
		C244.625,225.417,245.217,226.007,245.217,226.734"/>
	<path d="M240.605,214.685c0,0.728-0.59,1.316-1.32,1.316c-0.715,0-1.31-0.589-1.31-1.316c0-0.726,0.595-1.314,1.31-1.314
		C240.016,213.37,240.605,213.959,240.605,214.685"/>
	<path d="M249.199,203.466c0,0.727-0.591,1.314-1.318,1.314c-0.718,0-1.312-0.588-1.312-1.314s0.595-1.317,1.312-1.317
		C248.608,202.148,249.199,202.739,249.199,203.466"/>
	<path d="M226.612,205.903c0,0.729-0.591,1.316-1.32,1.316c-0.717,0-1.311-0.588-1.311-1.316c0-0.726,0.594-1.314,1.311-1.314
		C226.021,204.589,226.612,205.178,226.612,205.903"/>
	<path d="M221.761,203.313c0,0.727-0.59,1.314-1.318,1.314c-0.718,0-1.312-0.588-1.312-1.314c0-0.729,0.595-1.318,1.312-1.318
		C221.171,201.995,221.761,202.585,221.761,203.313"/>
	<path d="M227.778,195.354c0,0.727-0.59,1.315-1.32,1.315c-0.716,0-1.311-0.589-1.311-1.315c0-0.728,0.595-1.316,1.311-1.316
		C227.188,194.038,227.778,194.627,227.778,195.354"/>
	<path d="M216.438,195.218c0,0.728-0.589,1.314-1.32,1.314c-0.717,0-1.312-0.587-1.312-1.314c0-0.727,0.595-1.315,1.312-1.315
		C215.85,193.902,216.438,194.491,216.438,195.218"/>
	<path d="M216.47,190.319c0,0.726-0.592,1.314-1.319,1.314c-0.717,0-1.312-0.589-1.312-1.314c0-0.727,0.595-1.317,1.312-1.317
		C215.878,189.002,216.47,189.593,216.47,190.319"/>
	<path d="M214.661,199.454c0,0.728-0.591,1.316-1.32,1.316c-0.716,0-1.311-0.589-1.311-1.316c0-0.727,0.595-1.315,1.311-1.315
		C214.07,198.139,214.661,198.728,214.661,199.454"/>
	<path d="M218.58,212.388c0,0.728-0.591,1.314-1.32,1.314c-0.716,0-1.311-0.587-1.311-1.314c0-0.727,0.595-1.316,1.311-1.316
		C217.989,211.071,218.58,211.661,218.58,212.388"/>
	<path d="M213.742,214.282c0,0.728-0.589,1.315-1.32,1.315c-0.715,0-1.311-0.588-1.311-1.315s0.596-1.316,1.311-1.316
		C213.153,212.966,213.742,213.555,213.742,214.282"/>
	<path d="M215.264,230.444c0,0.726-0.591,1.314-1.32,1.314c-0.716,0-1.312-0.589-1.312-1.314c0-0.729,0.597-1.317,1.312-1.317
		C214.673,229.127,215.264,229.715,215.264,230.444"/>
	<path d="M173.229,221.917c0,0.727-0.59,1.314-1.319,1.314c-0.717,0-1.312-0.588-1.312-1.314s0.595-1.317,1.312-1.317
		C172.639,220.6,173.229,221.19,173.229,221.917"/>
	<path d="M172.305,211.103c0,0.727-0.591,1.315-1.32,1.315c-0.717,0-1.312-0.589-1.312-1.315c0-0.728,0.595-1.316,1.312-1.316
		C171.714,209.786,172.305,210.375,172.305,211.103"/>
	<path d="M153.394,207.516c0,0.726-0.591,1.314-1.32,1.314c-0.717,0-1.312-0.589-1.312-1.314c0-0.728,0.595-1.317,1.312-1.317
		C152.803,206.198,153.394,206.788,153.394,207.516"/>
	<path d="M139.743,226.487c0,0.727-0.591,1.316-1.32,1.316c-0.717,0-1.312-0.59-1.312-1.316c0-0.726,0.595-1.314,1.312-1.314
		C139.152,225.173,139.743,225.762,139.743,226.487"/>
	<path d="M140.72,233.707c0,0.729-0.59,1.315-1.318,1.315c-0.717,0-1.312-0.587-1.312-1.315c0-0.728,0.595-1.317,1.312-1.317
		C140.13,232.39,140.72,232.979,140.72,233.707"/>
	<path d="M153.091,239.146c0,0.728-0.591,1.314-1.321,1.314c-0.717,0-1.312-0.587-1.312-1.314c0-0.729,0.595-1.316,1.312-1.316
		C152.5,237.83,153.091,238.418,153.091,239.146"/>
	<path d="M176.017,241.533c0,0.729-0.59,1.318-1.32,1.318c-0.716,0-1.312-0.589-1.312-1.318c0-0.726,0.596-1.314,1.312-1.314
		C175.427,240.219,176.017,240.808,176.017,241.533"/>
	<path d="M187.408,196.329c0,0.726-0.591,1.313-1.321,1.313c-0.717,0-1.312-0.588-1.312-1.313c0-0.728,0.595-1.317,1.312-1.317
		C186.817,195.012,187.408,195.602,187.408,196.329"/>
	<path d="M173.745,183.039c0,0.727-0.591,1.314-1.32,1.314c-0.717,0-1.31-0.588-1.31-1.314s0.593-1.315,1.31-1.315
		C173.154,181.724,173.745,182.312,173.745,183.039"/>
	<path d="M194.913,176.918c0,0.727-0.591,1.314-1.32,1.314c-0.717,0-1.312-0.588-1.312-1.314c0-0.728,0.596-1.316,1.312-1.316
		C194.322,175.602,194.913,176.19,194.913,176.918"/>
	<path d="M209.113,174.508c0,0.727-0.59,1.315-1.319,1.315c-0.716,0-1.312-0.589-1.312-1.315c0-0.728,0.596-1.316,1.312-1.316
		C208.523,173.191,209.113,173.78,209.113,174.508"/>
	<path d="M226.458,177.842c0,0.727-0.59,1.314-1.319,1.314c-0.717,0-1.312-0.588-1.312-1.314s0.596-1.316,1.312-1.316
		C225.868,176.525,226.458,177.115,226.458,177.842"/>
	<path d="M229.493,169.308c0,0.728-0.592,1.316-1.321,1.316c-0.715,0-1.311-0.589-1.311-1.316c0-0.727,0.596-1.315,1.311-1.315
		C228.901,167.992,229.493,168.581,229.493,169.308"/>
	<path d="M215.83,156.022c0,0.727-0.591,1.315-1.32,1.315c-0.718,0-1.312-0.589-1.312-1.315c0-0.728,0.595-1.317,1.312-1.317
		C215.239,154.705,215.83,155.295,215.83,156.022"/>
	<path d="M204.812,147.762c0,0.727-0.592,1.316-1.322,1.316c-0.714,0-1.311-0.59-1.311-1.316s0.597-1.316,1.311-1.316
		C204.22,146.445,204.812,147.035,204.812,147.762"/>
	<path d="M186.769,162.029c0,0.727-0.59,1.315-1.319,1.315c-0.717,0-1.312-0.589-1.312-1.315c0-0.728,0.595-1.317,1.312-1.317
		C186.179,160.712,186.769,161.302,186.769,162.029"/>
	<path d="M186.8,157.135c0,0.728-0.591,1.314-1.32,1.314c-0.717,0-1.312-0.587-1.312-1.314c0-0.727,0.595-1.315,1.312-1.315
		C186.209,155.819,186.8,156.408,186.8,157.135"/>
	<path d="M188.574,152.891c0,0.728-0.592,1.314-1.32,1.314c-0.717,0-1.311-0.587-1.311-1.314s0.594-1.315,1.311-1.315
		C187.982,151.575,188.574,152.163,188.574,152.891"/>
	<path d="M175.46,156.995c0,0.727-0.59,1.314-1.319,1.314c-0.717,0-1.312-0.588-1.312-1.314c0-0.728,0.595-1.316,1.312-1.316
		C174.87,155.679,175.46,156.268,175.46,156.995"/>
	<path d="M181.479,149.037c0,0.728-0.59,1.315-1.319,1.315c-0.717,0-1.312-0.588-1.312-1.315c0-0.726,0.595-1.315,1.312-1.315
		C180.889,147.722,181.479,148.312,181.479,149.037"/>
	<path d="M176.632,146.444c0,0.728-0.589,1.315-1.319,1.315c-0.716,0-1.312-0.588-1.312-1.315s0.596-1.315,1.312-1.315
		C176.043,145.129,176.632,145.717,176.632,146.444"/>
	<path d="M154.035,148.887c0,0.728-0.59,1.315-1.321,1.315c-0.716,0-1.311-0.588-1.311-1.315s0.595-1.315,1.311-1.315
		C153.445,147.571,154.035,148.159,154.035,148.887"/>
	<path d="M162.63,137.662c0,0.727-0.59,1.315-1.319,1.315c-0.717,0-1.312-0.589-1.312-1.315c0-0.728,0.596-1.315,1.312-1.315
		C162.04,136.347,162.63,136.935,162.63,137.662"/>
	<path d="M184.656,139.96c0,0.728-0.59,1.314-1.32,1.314c-0.717,0-1.311-0.587-1.311-1.314s0.594-1.315,1.311-1.315
		C184.066,138.645,184.656,139.232,184.656,139.96"/>
	<path d="M189.428,138.066c0,0.727-0.591,1.315-1.319,1.315c-0.718,0-1.312-0.589-1.312-1.315c0-0.728,0.595-1.316,1.312-1.316
		C188.837,136.75,189.428,137.339,189.428,138.066"/>
	<path d="M187.906,121.909c0,0.728-0.592,1.314-1.32,1.314c-0.717,0-1.311-0.587-1.311-1.314s0.594-1.317,1.311-1.317
		C187.314,120.592,187.906,121.182,187.906,121.909"/>
	<path d="M230.011,130.432c0,0.727-0.59,1.314-1.319,1.314c-0.718,0-1.312-0.588-1.312-1.314c0-0.728,0.594-1.316,1.312-1.316
		C229.421,129.115,230.011,129.704,230.011,130.432"/>
	<path d="M230.936,141.248c0,0.728-0.591,1.314-1.32,1.314c-0.717,0-1.31-0.587-1.31-1.314s0.593-1.317,1.31-1.317
		C230.345,139.931,230.936,140.521,230.936,141.248"/>
	<path d="M249.845,144.832c0,0.727-0.589,1.314-1.319,1.314c-0.717,0-1.311-0.588-1.311-1.314c0-0.728,0.594-1.318,1.311-1.318
		C249.256,143.514,249.845,144.104,249.845,144.832"/>
	<path d="M263.494,125.862c0,0.728-0.591,1.314-1.32,1.314c-0.717,0-1.311-0.587-1.311-1.314s0.594-1.316,1.311-1.316
		C262.903,124.546,263.494,125.135,263.494,125.862"/>
	<path d="M262.518,118.646c0,0.728-0.59,1.314-1.32,1.314c-0.716,0-1.31-0.587-1.31-1.314s0.594-1.316,1.31-1.316
		C261.928,117.33,262.518,117.919,262.518,118.646"/>
	<path d="M250.146,113.204c0,0.728-0.592,1.315-1.32,1.315c-0.717,0-1.312-0.588-1.312-1.315s0.596-1.315,1.312-1.315
		C249.555,111.889,250.146,112.477,250.146,113.204"/>
	<path d="M227.221,110.812c0,0.728-0.592,1.314-1.32,1.314c-0.718,0-1.312-0.587-1.312-1.314s0.594-1.315,1.312-1.315
		C226.629,109.497,227.221,110.085,227.221,110.812"/>
	<path d="M175.918,111.639c0,0.727-0.591,1.315-1.321,1.315c-0.716,0-1.312-0.589-1.312-1.315c0-0.728,0.596-1.315,1.312-1.315
		C175.327,110.323,175.918,110.911,175.918,111.639"/>
	<path d="M158.022,125.622c0,0.727-0.59,1.314-1.319,1.314c-0.717,0-1.312-0.588-1.312-1.314c0-0.728,0.596-1.316,1.312-1.316
		C157.433,124.306,158.022,124.895,158.022,125.622"/>
	<path d="M133.252,114.64c0,0.727-0.591,1.314-1.321,1.314c-0.716,0-1.312-0.588-1.312-1.314c0-0.729,0.596-1.316,1.312-1.316
		C132.661,113.323,133.252,113.911,133.252,114.64"/>
	<path d="M142.369,213.463c0-1.308,1.06-2.365,2.377-2.365c1.302,0,2.36,1.058,2.36,2.365c0,1.312-1.059,2.371-2.36,2.371
		C143.429,215.834,142.369,214.775,142.369,213.463"/>
	<path d="M152.48,201.469c0-1.31,1.059-2.366,2.378-2.366c1.301,0,2.358,1.057,2.358,2.366c0,1.312-1.058,2.369-2.358,2.369
		C153.539,203.838,152.48,202.78,152.48,201.469"/>
	<path d="M161.863,209.497c0-1.308,1.06-2.365,2.378-2.365c1.301,0,2.359,1.058,2.359,2.365c0,1.312-1.059,2.371-2.359,2.371
		C162.923,211.868,161.863,210.809,161.863,209.497"/>
	<path d="M145.282,230.774c0-1.307,1.06-2.366,2.378-2.366c1.302,0,2.36,1.06,2.36,2.366c0,1.312-1.059,2.37-2.36,2.37
		C146.342,233.145,145.282,232.086,145.282,230.774"/>
	<path d="M186.861,201.469c0-1.31,1.059-2.366,2.377-2.366c1.303,0,2.36,1.057,2.36,2.366c0,1.312-1.058,2.369-2.36,2.369
		C187.92,203.838,186.861,202.78,186.861,201.469"/>
	<path d="M197.023,209.723c0-1.309,1.059-2.365,2.376-2.365c1.302,0,2.359,1.057,2.359,2.365c0,1.312-1.058,2.371-2.359,2.371
		C198.082,212.094,197.023,211.034,197.023,209.723"/>
	<path d="M202.57,203.963c0-1.31,1.061-2.367,2.379-2.367c1.303,0,2.359,1.058,2.359,2.367c0,1.312-1.057,2.371-2.359,2.371
		C203.631,206.334,202.57,205.274,202.57,203.963"/>
	<path d="M227.347,215.969c0-1.31,1.057-2.366,2.377-2.366c1.301,0,2.356,1.057,2.356,2.366c0,1.313-1.056,2.371-2.356,2.371
		C228.403,218.34,227.347,217.282,227.347,215.969"/>
	<path d="M233.425,226.989c0-1.308,1.059-2.364,2.376-2.364c1.303,0,2.36,1.057,2.36,2.364c0,1.315-1.058,2.373-2.36,2.373
		C234.483,229.362,233.425,228.305,233.425,226.989"/>
	<path d="M226.749,245.336c0-1.311,1.061-2.369,2.378-2.369c1.304,0,2.36,1.059,2.36,2.369c0,1.312-1.057,2.369-2.36,2.369
		C227.81,247.705,226.749,246.647,226.749,245.336"/>
	<path d="M163.376,184.893c0-1.309,1.06-2.365,2.378-2.365c1.301,0,2.358,1.057,2.358,2.365c0,1.312-1.058,2.37-2.358,2.37
		C164.436,187.263,163.376,186.205,163.376,184.893"/>
	<path d="M177.743,194.019c0-1.308,1.059-2.366,2.377-2.366c1.302,0,2.36,1.059,2.36,2.366c0,1.312-1.059,2.372-2.36,2.372
		C178.802,196.391,177.743,195.33,177.743,194.019"/>
	<path d="M174.761,184.447c0-1.308,1.059-2.365,2.377-2.365c1.303,0,2.36,1.058,2.36,2.365c0,1.313-1.058,2.371-2.36,2.371
		C175.819,186.818,174.761,185.761,174.761,184.447"/>
	<path d="M190.205,183.597c0-1.31,1.059-2.367,2.377-2.367c1.301,0,2.359,1.058,2.359,2.367c0,1.312-1.059,2.37-2.359,2.37
		C191.264,185.967,190.205,184.908,190.205,183.597"/>
	<path d="M203.594,179.411c0-1.309,1.058-2.367,2.376-2.367c1.304,0,2.361,1.059,2.361,2.367c0,1.312-1.058,2.37-2.361,2.37
		C204.651,181.781,203.594,180.723,203.594,179.411"/>
	<path d="M232.257,187.325c0-1.309,1.058-2.366,2.376-2.366c1.303,0,2.36,1.058,2.36,2.366c0,1.312-1.058,2.37-2.36,2.37
		C233.314,189.695,232.257,188.638,232.257,187.325"/>
	<path d="M232.47,167.554c0-1.309,1.058-2.365,2.377-2.365c1.302,0,2.36,1.057,2.36,2.365c0,1.313-1.059,2.371-2.36,2.371
		C233.527,169.925,232.47,168.867,232.47,167.554"/>
	<path d="M221.064,167.899c0-1.309,1.058-2.367,2.377-2.367c1.302,0,2.36,1.059,2.36,2.367c0,1.312-1.059,2.37-2.36,2.37
		C222.122,170.27,221.064,169.211,221.064,167.899"/>
	<path d="M163.616,165.017c0-1.309,1.06-2.366,2.377-2.366c1.302,0,2.359,1.058,2.359,2.366c0,1.312-1.058,2.37-2.359,2.37
		C164.676,167.387,163.616,166.329,163.616,165.017"/>
	<path d="M155.939,154.572c0-1.308,1.06-2.366,2.377-2.366c1.301,0,2.359,1.059,2.359,2.366c0,1.312-1.059,2.371-2.359,2.371
		C156.999,156.943,155.939,155.885,155.939,154.572"/>
	<path d="M148.605,136.106c0-1.308,1.06-2.366,2.377-2.366c1.303,0,2.361,1.059,2.361,2.366c0,1.312-1.059,2.37-2.361,2.37
		C149.665,138.477,148.605,137.419,148.605,136.106"/>
	<path d="M168.524,136.373c0-1.309,1.059-2.367,2.377-2.367c1.302,0,2.36,1.059,2.36,2.367c0,1.313-1.059,2.37-2.36,2.37
		C169.583,138.743,168.524,137.687,168.524,136.373"/>
	<path d="M162.444,125.354c0-1.309,1.058-2.367,2.378-2.367c1.302,0,2.357,1.059,2.357,2.367c0,1.312-1.056,2.37-2.357,2.37
		C163.502,127.725,162.444,126.666,162.444,125.354"/>
	<path d="M169.12,107.01c0-1.309,1.059-2.367,2.377-2.367c1.303,0,2.359,1.059,2.359,2.367c0,1.312-1.057,2.37-2.359,2.37
		C170.179,109.38,169.12,108.321,169.12,107.01"/>
	<path d="M198.848,142.618c0-1.308,1.059-2.365,2.377-2.365c1.303,0,2.359,1.058,2.359,2.365c0,1.312-1.057,2.371-2.359,2.371
		C199.906,144.989,198.848,143.931,198.848,142.618"/>
	<path d="M193.3,148.379c0-1.308,1.058-2.366,2.377-2.366c1.302,0,2.358,1.059,2.358,2.366c0,1.312-1.057,2.371-2.358,2.371
		C194.357,150.75,193.3,149.691,193.3,148.379"/>
	<path d="M209.006,150.881c0-1.309,1.059-2.366,2.38-2.366c1.299,0,2.358,1.058,2.358,2.366c0,1.312-1.06,2.371-2.358,2.371
		C210.064,153.252,209.006,152.193,209.006,150.881"/>
	<path d="M218.127,158.322c0-1.309,1.059-2.366,2.377-2.366c1.301,0,2.359,1.058,2.359,2.366c0,1.312-1.059,2.37-2.359,2.37
		C219.186,160.692,218.127,159.635,218.127,158.322"/>
	<path d="M234.044,142.847c0-1.308,1.059-2.366,2.376-2.366c1.304,0,2.361,1.059,2.361,2.366c0,1.312-1.058,2.371-2.361,2.371
		C235.103,145.218,234.044,144.159,234.044,142.847"/>
	<path d="M243.388,150.881c0-1.309,1.059-2.366,2.377-2.366c1.302,0,2.361,1.058,2.361,2.366c0,1.312-1.06,2.371-2.361,2.371
		C244.446,153.252,243.388,152.193,243.388,150.881"/>
	<path d="M253.497,138.876c0-1.309,1.061-2.366,2.378-2.366c1.303,0,2.36,1.058,2.36,2.366c0,1.313-1.058,2.37-2.36,2.37
		C254.558,141.246,253.497,140.189,253.497,138.876"/>
	<path d="M250.598,121.568c0-1.308,1.058-2.366,2.377-2.366c1.303,0,2.359,1.059,2.359,2.366c0,1.312-1.057,2.371-2.359,2.371
		C251.655,123.939,250.598,122.88,250.598,121.568"/>
	<path d="M239.93,197.77c0-1.307,1.059-2.365,2.377-2.365c1.303,0,2.359,1.059,2.359,2.365c0,1.314-1.057,2.371-2.359,2.371
		C240.988,200.141,239.93,199.084,239.93,197.77"/>
	<path d="M247.267,216.235c0-1.308,1.059-2.364,2.377-2.364c1.302,0,2.359,1.057,2.359,2.364c0,1.312-1.058,2.37-2.359,2.37
		C248.325,218.605,247.267,217.548,247.267,216.235"/>
	<path d="M205.665,168.744c0-1.308,1.059-2.366,2.377-2.366c1.301,0,2.358,1.059,2.358,2.366c0,1.312-1.058,2.371-2.358,2.371
		C206.724,171.115,205.665,170.057,205.665,168.744"/>
	<path d="M219.229,181.32c0-1.309,1.06-2.366,2.377-2.366c1.302,0,2.36,1.058,2.36,2.366c0,1.312-1.059,2.37-2.36,2.37
		C220.289,183.69,219.229,182.633,219.229,181.32"/>
	<path d="M176.642,171.025c0-1.31,1.061-2.366,2.378-2.366c1.302,0,2.359,1.057,2.359,2.366c0,1.313-1.058,2.371-2.359,2.371
		C177.702,173.396,176.642,172.339,176.642,171.025"/>
	<path d="M179.119,233.112c0,2.33-1.88,4.219-4.207,4.219c-2.323,0-4.213-1.889-4.213-4.219c0-2.322,1.89-4.203,4.213-4.203
		C177.239,228.909,179.119,230.79,179.119,233.112"/>
	<path d="M225.81,219.254c0,2.328-1.881,4.217-4.208,4.217c-2.325,0-4.214-1.889-4.214-4.217c0-2.321,1.889-4.205,4.214-4.205
		C223.929,215.049,225.81,216.933,225.81,219.254"/>
	<path d="M246.848,237.599c0,2.328-1.88,4.22-4.209,4.22c-2.322,0-4.212-1.892-4.212-4.22c0-2.321,1.89-4.201,4.212-4.201
		C244.968,233.397,246.848,235.277,246.848,237.599"/>
	<path d="M212.535,191.605c0,2.328-1.879,4.218-4.208,4.218c-2.322,0-4.213-1.89-4.213-4.218c0-2.322,1.891-4.204,4.213-4.204
		C210.656,187.401,212.535,189.283,212.535,191.605"/>
	<path d="M226.897,189.475c0,2.329-1.879,4.217-4.209,4.217c-2.321,0-4.212-1.888-4.212-4.217c0-2.321,1.891-4.203,4.212-4.203
		C225.019,185.271,226.897,187.153,226.897,189.475"/>
	<path d="M218.779,182.615c0,2.328-1.882,4.219-4.21,4.219c-2.324,0-4.213-1.891-4.213-4.219c0-2.32,1.889-4.202,4.213-4.202
		C216.897,178.413,218.779,180.295,218.779,182.615"/>
	<path d="M235.922,153.471c0,2.328-1.881,4.218-4.209,4.218c-2.322,0-4.213-1.89-4.213-4.218c0-2.322,1.891-4.203,4.213-4.203
		C234.041,149.268,235.922,151.148,235.922,153.471"/>
	<path d="M183.221,133.08c0,2.327-1.88,4.217-4.208,4.217c-2.322,0-4.213-1.89-4.213-4.217c0-2.322,1.891-4.203,4.213-4.203
		C181.341,128.877,183.221,130.758,183.221,133.08"/>
	<path d="M162.179,114.739c0,2.328-1.88,4.217-4.207,4.217c-2.323,0-4.213-1.889-4.213-4.217c0-2.321,1.89-4.203,4.213-4.203
		C160.299,110.536,162.179,112.418,162.179,114.739"/>
	<path d="M230.02,119.148c0,2.328-1.88,4.218-4.209,4.218c-2.323,0-4.213-1.89-4.213-4.218c0-2.322,1.89-4.204,4.213-4.204
		C228.14,114.944,230.02,116.826,230.02,119.148"/>
	<path d="M204.128,167.894c0,2.329-1.881,4.218-4.208,4.218c-2.322,0-4.213-1.889-4.213-4.218c0-2.32,1.891-4.202,4.213-4.202
		C202.247,163.691,204.128,165.573,204.128,167.894"/>
	<path d="M195.881,160.568c0,2.328-1.879,4.219-4.207,4.219c-2.324,0-4.213-1.891-4.213-4.219c0-2.32,1.889-4.203,4.213-4.203
		C194.002,156.365,195.881,158.248,195.881,160.568"/>
	<path d="M190.25,169.719c0,2.329-1.88,4.218-4.209,4.218c-2.322,0-4.211-1.889-4.211-4.218c0-2.32,1.889-4.202,4.211-4.202
		C188.37,165.517,190.25,167.398,190.25,169.719"/>
	<path d="M182.13,162.86c0,2.328-1.88,4.217-4.208,4.217c-2.324,0-4.213-1.889-4.213-4.217c0-2.322,1.889-4.204,4.213-4.204
		C180.25,158.656,182.13,160.538,182.13,162.86"/>
	<path d="M195.883,191.353c0,2.327-1.88,4.218-4.209,4.218c-2.323,0-4.213-1.891-4.213-4.218c0-2.321,1.89-4.203,4.213-4.203
		C194.003,187.149,195.883,189.031,195.883,191.353"/>
	<path d="M173.108,198.86c0,2.329-1.88,4.218-4.209,4.218c-2.322,0-4.213-1.889-4.213-4.218c0-2.322,1.891-4.203,4.213-4.203
		C171.229,194.657,173.108,196.538,173.108,198.86"/>
	<path d="M210.562,217.53c0,1.743-1.415,3.155-3.152,3.155c-1.747,0-3.163-1.412-3.163-3.155c0-1.751,1.416-3.159,3.163-3.159
		C209.147,214.371,210.562,215.779,210.562,217.53"/>
	<path d="M216.255,208.145c0,1.743-1.416,3.155-3.154,3.155c-1.745,0-3.162-1.412-3.162-3.155c0-1.751,1.417-3.16,3.162-3.16
		C214.839,204.984,216.255,206.394,216.255,208.145"/>
	<path d="M235.8,194.909c0,1.745-1.416,3.156-3.153,3.156c-1.746,0-3.162-1.411-3.162-3.156c0-1.751,1.416-3.159,3.162-3.159
		C234.384,191.75,235.8,193.158,235.8,194.909"/>
	<path d="M176.722,190.645c0,1.745-1.415,3.156-3.153,3.156c-1.746,0-3.161-1.411-3.161-3.156c0-1.749,1.415-3.16,3.161-3.16
		C175.307,187.484,176.722,188.896,176.722,190.645"/>
	<path d="M200.302,199.825c0,1.746-1.416,3.157-3.152,3.157c-1.749,0-3.164-1.411-3.164-3.157c0-1.749,1.415-3.159,3.164-3.159
		C198.886,196.666,200.302,198.076,200.302,199.825"/>
	<path d="M203.074,188.55c0,1.745-1.415,3.157-3.151,3.157c-1.749,0-3.163-1.412-3.163-3.157c0-1.75,1.414-3.158,3.163-3.158
		C201.659,185.392,203.074,186.8,203.074,188.55"/>
	<path d="M202.546,177.986c0,1.745-1.415,3.157-3.151,3.157c-1.747,0-3.161-1.412-3.161-3.157c0-1.748,1.414-3.159,3.161-3.159
		C201.131,174.827,202.546,176.238,202.546,177.986"/>
	<path d="M232.564,174.511c0,1.745-1.416,3.156-3.152,3.156c-1.748,0-3.163-1.411-3.163-3.156c0-1.75,1.415-3.159,3.163-3.159
		C231.148,171.352,232.564,172.761,232.564,174.511"/>
	<path d="M230.196,161.712c0,1.744-1.415,3.156-3.153,3.156c-1.747,0-3.16-1.412-3.16-3.156c0-1.75,1.413-3.158,3.16-3.158
		C228.781,158.554,230.196,159.962,230.196,161.712"/>
	<path d="M190.67,144.203c0,1.745-1.415,3.157-3.154,3.157c-1.745,0-3.161-1.412-3.161-3.157c0-1.75,1.416-3.159,3.161-3.159
		C189.255,141.044,190.67,142.453,190.67,144.203"/>
	<path d="M196.359,134.82c0,1.744-1.418,3.155-3.154,3.155c-1.747,0-3.161-1.411-3.161-3.155c0-1.75,1.414-3.159,3.161-3.159
		C194.941,131.661,196.359,133.07,196.359,134.82"/>
	<path d="M237.79,134.439c0,1.745-1.416,3.156-3.154,3.156c-1.747,0-3.162-1.411-3.162-3.156c0-1.749,1.415-3.159,3.162-3.159
		C236.374,131.28,237.79,132.69,237.79,134.439"/>
	<path d="M212.886,159.098c0,1.746-1.415,3.156-3.153,3.156c-1.748,0-3.162-1.41-3.162-3.156c0-1.749,1.414-3.159,3.162-3.159
		C211.471,155.938,212.886,157.349,212.886,159.098"/>
	<path d="M171.123,157.445c0,1.746-1.417,3.157-3.153,3.157c-1.748,0-3.164-1.411-3.164-3.157c0-1.749,1.416-3.158,3.164-3.158
		C169.706,154.287,171.123,155.696,171.123,157.445"/>
	<path d="M174.359,177.844c0,1.744-1.415,3.156-3.152,3.156c-1.747,0-3.162-1.412-3.162-3.156c0-1.75,1.415-3.158,3.162-3.158
		C172.944,174.686,174.359,176.094,174.359,177.844"/>
	<path d="M169.135,217.909c0,1.743-1.416,3.155-3.154,3.155c-1.747,0-3.164-1.412-3.164-3.155c0-1.75,1.417-3.16,3.164-3.16
		C167.719,214.749,169.135,216.159,169.135,217.909"/>
	<path d="M165.824,243.596c0,0.981-0.789,1.764-1.768,1.764c-0.974,0-1.76-0.782-1.76-1.764c0-0.979,0.786-1.761,1.76-1.761
		C165.035,241.835,165.824,242.617,165.824,243.596"/>
	<path d="M159.727,233.29c0,0.982-0.789,1.764-1.768,1.764c-0.973,0-1.76-0.781-1.76-1.764c0-0.978,0.787-1.763,1.76-1.763
		C158.938,231.527,159.727,232.312,159.727,233.29"/>
	<path d="M143.956,242.412c0,0.984-0.789,1.767-1.766,1.767c-0.975,0-1.761-0.782-1.761-1.767c0-0.979,0.786-1.761,1.761-1.761
		C143.167,240.651,143.956,241.434,143.956,242.412"/>
	<path d="M170.431,227.708c0,0.984-0.788,1.767-1.767,1.767c-0.975,0-1.76-0.782-1.76-1.767c0-0.979,0.785-1.76,1.76-1.76
		C169.643,225.948,170.431,226.729,170.431,227.708"/>
	<path d="M188.6,224.937c0,0.983-0.787,1.766-1.766,1.766c-0.975,0-1.76-0.782-1.76-1.766c0-0.978,0.785-1.761,1.76-1.761
		C187.812,223.176,188.6,223.959,188.6,224.937"/>
	<path d="M189.362,218.01c0,0.983-0.788,1.765-1.767,1.765c-0.974,0-1.759-0.781-1.759-1.765c0-0.979,0.785-1.76,1.759-1.76
		C188.574,216.25,189.362,217.031,189.362,218.01"/>
	<path d="M179.362,219.03c0,0.983-0.789,1.766-1.767,1.766c-0.974,0-1.761-0.782-1.761-1.766c0-0.978,0.787-1.76,1.761-1.76
		C178.573,217.271,179.362,218.053,179.362,219.03"/>
	<path d="M195.869,214.969c0,0.983-0.79,1.766-1.766,1.766c-0.977,0-1.761-0.782-1.761-1.766c0-0.978,0.784-1.76,1.761-1.76
		C195.079,213.209,195.869,213.991,195.869,214.969"/>
	<path d="M194.787,208.435c0,0.982-0.787,1.765-1.766,1.765c-0.974,0-1.76-0.782-1.76-1.765c0-0.978,0.786-1.761,1.76-1.761
		C194,206.674,194.787,207.457,194.787,208.435"/>
	<path d="M183.778,200.654c0,0.983-0.79,1.766-1.768,1.766c-0.973,0-1.76-0.782-1.76-1.766c0-0.978,0.787-1.761,1.76-1.761
		C182.988,198.894,183.778,199.677,183.778,200.654"/>
	<path d="M177.003,203.909c0,0.982-0.788,1.765-1.767,1.765c-0.975,0-1.759-0.782-1.759-1.765c0-0.979,0.784-1.761,1.759-1.761
		C176.215,202.148,177.003,202.931,177.003,203.909"/>
	<path d="M168.1,191.499c0,0.982-0.787,1.765-1.766,1.765c-0.975,0-1.76-0.782-1.76-1.765c0-0.979,0.785-1.761,1.76-1.761
		C167.312,189.738,168.1,190.52,168.1,191.499"/>
	<path d="M161.008,190.934c0,0.983-0.787,1.766-1.768,1.766c-0.973,0-1.759-0.782-1.759-1.766c0-0.978,0.786-1.76,1.759-1.76
		C160.221,189.174,161.008,189.956,161.008,190.934"/>
	<path d="M178.895,175.858c0,0.982-0.789,1.766-1.767,1.766c-0.974,0-1.76-0.783-1.76-1.766c0-0.979,0.786-1.762,1.76-1.762
		C178.105,174.097,178.895,174.879,178.895,175.858"/>
	<path d="M174.262,167.916c0,0.982-0.787,1.764-1.766,1.764c-0.975,0-1.76-0.781-1.76-1.764c0-0.979,0.785-1.761,1.76-1.761
		C173.475,166.155,174.262,166.937,174.262,167.916"/>
	<path d="M180.583,156.082c0,0.982-0.787,1.765-1.766,1.765c-0.974,0-1.759-0.782-1.759-1.765c0-0.979,0.785-1.761,1.759-1.761
		C179.796,154.321,180.583,155.103,180.583,156.082"/>
	<path d="M195.03,171.997c0,0.982-0.788,1.765-1.766,1.765c-0.974,0-1.761-0.782-1.761-1.765c0-0.979,0.787-1.762,1.761-1.762
		C194.242,170.235,195.03,171.018,195.03,171.997"/>
	<path d="M194.209,167.627c0,0.983-0.788,1.766-1.768,1.766c-0.974,0-1.758-0.782-1.758-1.766c0-0.979,0.784-1.76,1.758-1.76
		C193.421,165.867,194.209,166.648,194.209,167.627"/>
	<path d="M207.067,163.729c0,0.982-0.787,1.766-1.77,1.766c-0.973,0-1.759-0.783-1.759-1.766c0-0.979,0.786-1.762,1.759-1.762
		C206.28,161.967,207.067,162.749,207.067,163.729"/>
	<path d="M219.313,163.348c0,0.984-0.788,1.766-1.768,1.766c-0.973,0-1.761-0.781-1.761-1.766c0-0.979,0.788-1.761,1.761-1.761
		C218.525,161.587,219.313,162.369,219.313,163.348"/>
	<path d="M236.034,160.85c0,0.983-0.787,1.766-1.766,1.766c-0.974,0-1.761-0.782-1.761-1.766c0-0.979,0.787-1.76,1.761-1.76
		C235.247,159.09,236.034,159.871,236.034,160.85"/>
	<path d="M243.125,161.405c0,0.983-0.79,1.766-1.767,1.766c-0.976,0-1.762-0.782-1.762-1.766c0-0.979,0.786-1.76,1.762-1.76
		C242.335,159.646,243.125,160.427,243.125,161.405"/>
	<path d="M229.873,184.43c0,0.983-0.788,1.765-1.766,1.765c-0.975,0-1.761-0.781-1.761-1.765c0-0.979,0.786-1.762,1.761-1.762
		C229.085,182.668,229.873,183.45,229.873,184.43"/>
	<path d="M209.922,184.718c0,0.982-0.786,1.765-1.768,1.765c-0.972,0-1.758-0.782-1.758-1.765c0-0.979,0.786-1.761,1.758-1.761
		C209.136,182.957,209.922,183.739,209.922,184.718"/>
	<path d="M203.328,194.977c0,0.983-0.79,1.766-1.767,1.766c-0.976,0-1.761-0.782-1.761-1.766c0-0.979,0.785-1.762,1.761-1.762
		C202.538,193.215,203.328,193.998,203.328,194.977"/>
	<path d="M184.884,189.052c0,0.983-0.787,1.766-1.766,1.766c-0.974,0-1.759-0.782-1.759-1.766c0-0.978,0.785-1.761,1.759-1.761
		C184.097,187.291,184.884,188.074,184.884,189.052"/>
	<path d="M186.65,149.664c0,0.983-0.789,1.767-1.766,1.767c-0.975,0-1.761-0.783-1.761-1.767c0-0.978,0.786-1.76,1.761-1.76
		C185.861,147.904,186.65,148.687,186.65,149.664"/>
	<path d="M178.776,141.362c0,0.983-0.789,1.766-1.767,1.766c-0.974,0-1.759-0.782-1.759-1.766c0-0.979,0.785-1.762,1.759-1.762
		C177.987,139.601,178.776,140.383,178.776,141.362"/>
	<path d="M207.018,211.55c0,0.983-0.79,1.765-1.769,1.765c-0.974,0-1.759-0.781-1.759-1.765c0-0.979,0.785-1.762,1.759-1.762
		C206.228,209.788,207.018,210.57,207.018,211.55"/>
	<path d="M217.483,202.679c0,0.983-0.79,1.767-1.767,1.767c-0.973,0-1.759-0.783-1.759-1.767c0-0.978,0.786-1.761,1.759-1.761
		C216.693,200.918,217.483,201.701,217.483,202.679"/>
	<path d="M223.551,196.261c0,0.983-0.787,1.767-1.768,1.767c-0.973,0-1.761-0.783-1.761-1.767c0-0.979,0.788-1.761,1.761-1.761
		C222.764,194.5,223.551,195.282,223.551,196.261"/>
	<path d="M225.313,210.985c0,0.982-0.788,1.766-1.766,1.766c-0.976,0-1.761-0.783-1.761-1.766c0-0.978,0.785-1.761,1.761-1.761
		C224.525,209.225,225.313,210.008,225.313,210.985"/>
	<path d="M245.671,209.043c0,0.983-0.789,1.766-1.769,1.766c-0.972,0-1.759-0.782-1.759-1.766c0-0.978,0.787-1.762,1.759-1.762
		C244.882,207.281,245.671,208.065,245.671,209.043"/>
	<path d="M252.299,209.99c0,0.982-0.787,1.766-1.764,1.766c-0.975,0-1.762-0.783-1.762-1.766c0-0.979,0.787-1.762,1.762-1.762
		C251.512,208.229,252.299,209.012,252.299,209.99"/>
	<path d="M265.153,227.374c0,0.98-0.79,1.764-1.766,1.764c-0.974,0-1.759-0.783-1.759-1.764c0-0.978,0.785-1.76,1.759-1.76
		C264.363,225.614,265.153,226.396,265.153,227.374"/>
	<path d="M243.774,220.012c0,0.982-0.787,1.765-1.767,1.765c-0.975,0-1.76-0.782-1.76-1.765c0-0.979,0.785-1.761,1.76-1.761
		C242.987,218.251,243.774,219.033,243.774,220.012"/>
	<path d="M224.055,227.927c0,0.982-0.787,1.766-1.765,1.766c-0.975,0-1.76-0.783-1.76-1.766c0-0.978,0.785-1.76,1.76-1.76
		C223.268,226.167,224.055,226.949,224.055,227.927"/>
	<path d="M222.863,235.776c0,0.983-0.787,1.764-1.767,1.764c-0.974,0-1.761-0.78-1.761-1.764c0-0.979,0.787-1.761,1.761-1.761
		C222.076,234.016,222.863,234.798,222.863,235.776"/>
	<path d="M235.193,236.41c0,0.985-0.788,1.768-1.765,1.768c-0.974,0-1.76-0.782-1.76-1.768c0-0.979,0.786-1.759,1.76-1.759
		C234.405,234.651,235.193,235.432,235.193,236.41"/>
	<path d="M239.58,247.932c0,0.983-0.789,1.766-1.765,1.766c-0.977,0-1.762-0.782-1.762-1.766c0-0.978,0.785-1.76,1.762-1.76
		C238.791,246.172,239.58,246.954,239.58,247.932"/>
	<path d="M252.713,249.584c0,0.983-0.788,1.768-1.766,1.768c-0.975,0-1.76-0.784-1.76-1.768c0-0.978,0.785-1.762,1.76-1.762
		C251.925,247.822,252.713,248.606,252.713,249.584"/>
	<path d="M220.356,151.692c0,0.983-0.786,1.766-1.766,1.766c-0.974,0-1.761-0.782-1.761-1.766c0-0.979,0.787-1.761,1.761-1.761
		C219.57,149.932,220.356,150.714,220.356,151.692"/>
	<path d="M227.132,148.439c0,0.983-0.789,1.766-1.768,1.766c-0.975,0-1.76-0.782-1.76-1.766c0-0.979,0.785-1.761,1.76-1.761
		C226.343,146.679,227.132,147.461,227.132,148.439"/>
	<path d="M208.264,137.37c0,0.984-0.788,1.767-1.766,1.767c-0.976,0-1.761-0.782-1.761-1.767c0-0.979,0.785-1.76,1.761-1.76
		C207.476,135.61,208.264,136.392,208.264,137.37"/>
	<path d="M209.345,143.914c0,0.982-0.786,1.766-1.767,1.766c-0.973,0-1.76-0.783-1.76-1.766c0-0.979,0.787-1.761,1.76-1.761
		C208.559,142.153,209.345,142.935,209.345,143.914"/>
	<path d="M214.769,134.328c0,0.983-0.787,1.766-1.766,1.766c-0.973,0-1.76-0.782-1.76-1.766c0-0.979,0.787-1.76,1.76-1.76
		C213.981,132.568,214.769,133.35,214.769,134.328"/>
	<path d="M224.769,133.312c0,0.983-0.789,1.766-1.767,1.766c-0.976,0-1.761-0.782-1.761-1.766c0-0.978,0.785-1.761,1.761-1.761
		C223.979,131.552,224.769,132.335,224.769,133.312"/>
	<path d="M215.529,127.404c0,0.983-0.789,1.765-1.766,1.765c-0.976,0-1.762-0.781-1.762-1.765c0-0.979,0.786-1.761,1.762-1.761
		C214.74,125.644,215.529,126.426,215.529,127.404"/>
	<path d="M233.704,124.639c0,0.983-0.79,1.765-1.768,1.765c-0.975,0-1.76-0.781-1.76-1.765c0-0.979,0.785-1.762,1.76-1.762
		C232.914,122.877,233.704,123.659,233.704,124.639"/>
	<path d="M244.407,119.054c0,0.983-0.79,1.767-1.767,1.767c-0.976,0-1.761-0.783-1.761-1.767c0-0.978,0.785-1.76,1.761-1.76
		C243.617,117.294,244.407,118.076,244.407,119.054"/>
	<path d="M260.176,109.932c0,0.983-0.789,1.765-1.767,1.765c-0.974,0-1.761-0.781-1.761-1.765c0-0.979,0.787-1.761,1.761-1.761
		C259.387,108.171,260.176,108.953,260.176,109.932"/>
	<path d="M238.308,108.748c0,0.982-0.788,1.766-1.767,1.766c-0.973,0-1.761-0.783-1.761-1.766c0-0.979,0.788-1.76,1.761-1.76
		C237.52,106.988,238.308,107.77,238.308,108.748"/>
	<path d="M181.271,116.561c0,0.983-0.788,1.766-1.767,1.766c-0.974,0-1.76-0.782-1.76-1.766c0-0.979,0.786-1.761,1.76-1.761
		C180.483,114.8,181.271,115.582,181.271,116.561"/>
	<path d="M180.076,124.418c0,0.983-0.787,1.767-1.766,1.767c-0.974,0-1.759-0.783-1.759-1.767c0-0.979,0.785-1.761,1.759-1.761
		C179.289,122.657,180.076,123.439,180.076,124.418"/>
	<path d="M151.421,102.775c0,0.983-0.789,1.765-1.768,1.765c-0.973,0-1.76-0.781-1.76-1.765c0-0.979,0.787-1.761,1.76-1.761
		C150.632,101.015,151.421,101.797,151.421,102.775"/>
	<path d="M164.555,104.406c0,0.982-0.789,1.765-1.767,1.765c-0.974,0-1.76-0.782-1.76-1.765c0-0.979,0.786-1.761,1.76-1.761
		C163.766,102.646,164.555,103.427,164.555,104.406"/>
	<path d="M138.979,124.968c0,0.982-0.787,1.766-1.768,1.766c-0.973,0-1.759-0.783-1.759-1.766c0-0.979,0.786-1.76,1.759-1.76
		C138.192,123.208,138.979,123.988,138.979,124.968"/>
	<path d="M160.359,132.332c0,0.982-0.788,1.764-1.768,1.764c-0.974,0-1.759-0.781-1.759-1.764c0-0.979,0.785-1.762,1.759-1.762
		C159.571,130.57,160.359,131.353,160.359,132.332"/>
	<path d="M151.831,142.354c0,0.983-0.789,1.766-1.767,1.766c-0.974,0-1.759-0.782-1.759-1.766c0-0.979,0.785-1.761,1.759-1.761
		C151.042,140.593,151.831,141.375,151.831,142.354"/>
	<path d="M158.465,143.305c0,0.982-0.788,1.766-1.768,1.766c-0.973,0-1.759-0.783-1.759-1.766c0-0.979,0.786-1.761,1.759-1.761
		C157.677,141.544,158.465,142.325,158.465,143.305"/>
	<path d="M197.117,140.801c0,0.983-0.788,1.765-1.766,1.765c-0.976,0-1.761-0.781-1.761-1.765c0-0.979,0.785-1.761,1.761-1.761
		C196.329,139.04,197.117,139.821,197.117,140.801"/>
	<path d="M168.939,115.934c0,0.983-0.789,1.766-1.766,1.766c-0.975,0-1.761-0.782-1.761-1.766c0-0.979,0.786-1.761,1.761-1.761
		C168.15,114.173,168.939,114.955,168.939,115.934"/>
	<path d="M239.726,210.483c0,0.284-0.24,0.527-0.527,0.527c-0.288,0-0.524-0.243-0.524-0.527c0-0.29,0.236-0.524,0.524-0.524
		C239.485,209.959,239.726,210.193,239.726,210.483"/>
	<path d="M223.147,200.846c0,0.285-0.239,0.529-0.527,0.529c-0.29,0-0.524-0.244-0.524-0.529c0-0.289,0.234-0.524,0.524-0.524
		C222.908,200.321,223.147,200.557,223.147,200.846"/>
	<path d="M220.224,207.513c0,0.284-0.24,0.527-0.528,0.527s-0.526-0.243-0.526-0.527c0-0.29,0.238-0.524,0.526-0.524
		S220.224,207.223,220.224,207.513"/>
	<path d="M210.749,201.841c0,0.284-0.239,0.528-0.527,0.528c-0.289,0-0.524-0.244-0.524-0.528c0-0.289,0.235-0.524,0.524-0.524
		C210.51,201.316,210.749,201.552,210.749,201.841"/>
	<path d="M204.122,197.711c0,0.285-0.238,0.527-0.527,0.527s-0.524-0.242-0.524-0.527c0-0.29,0.235-0.524,0.524-0.524
		S204.122,197.421,204.122,197.711"/>
	<path d="M202.457,200.386c0,0.283-0.239,0.526-0.527,0.526c-0.29,0-0.525-0.243-0.525-0.526c0-0.291,0.235-0.525,0.525-0.525
		C202.218,199.86,202.457,200.095,202.457,200.386"/>
	<path d="M201.991,214.166c0,0.284-0.239,0.526-0.527,0.526s-0.524-0.242-0.524-0.526c0-0.29,0.236-0.525,0.524-0.525
		S201.991,213.876,201.991,214.166"/>
	<path d="M207.357,222.978c0,0.285-0.239,0.527-0.527,0.527c-0.289,0-0.524-0.242-0.524-0.527c0-0.29,0.235-0.525,0.524-0.525
		C207.118,222.452,207.357,222.688,207.357,222.978"/>
	<path d="M203.251,231.32c0,0.287-0.239,0.527-0.526,0.527c-0.29,0-0.525-0.24-0.525-0.527c0-0.29,0.235-0.522,0.525-0.522
		C203.012,230.798,203.251,231.03,203.251,231.32"/>
	<path d="M192.284,220.855c0,0.287-0.238,0.529-0.528,0.529c-0.288,0-0.524-0.242-0.524-0.529c0-0.289,0.236-0.523,0.524-0.523
		C192.046,220.332,192.284,220.566,192.284,220.855"/>
	<path d="M185.872,230.145c0,0.288-0.24,0.528-0.528,0.528s-0.524-0.24-0.524-0.528s0.236-0.522,0.524-0.522
		S185.872,229.856,185.872,230.145"/>
	<path d="M176.227,212.905c0,0.286-0.238,0.528-0.528,0.528c-0.288,0-0.524-0.242-0.524-0.528c0-0.29,0.236-0.524,0.524-0.524
		C175.988,212.381,176.227,212.615,176.227,212.905"/>
	<path d="M172.696,208.575c0,0.284-0.238,0.528-0.526,0.528c-0.289,0-0.525-0.244-0.525-0.528c0-0.291,0.236-0.524,0.525-0.524
		C172.458,208.051,172.696,208.284,172.696,208.575"/>
	<path d="M195.942,205.977c0,0.286-0.241,0.53-0.528,0.53c-0.289,0-0.523-0.244-0.523-0.53c0-0.288,0.234-0.522,0.523-0.522
		C195.701,205.454,195.942,205.688,195.942,205.977"/>
	<path d="M161.248,215.761c0,0.284-0.238,0.528-0.527,0.528c-0.288,0-0.525-0.244-0.525-0.528c0-0.291,0.237-0.523,0.525-0.523
		C161.01,215.237,161.248,215.47,161.248,215.761"/>
	<path d="M164.858,201.856c0,0.285-0.239,0.527-0.527,0.527c-0.289,0-0.524-0.242-0.524-0.527c0-0.289,0.235-0.525,0.524-0.525
		C164.619,201.331,164.858,201.567,164.858,201.856"/>
	<path d="M164.286,195.216c0,0.286-0.24,0.527-0.528,0.527s-0.524-0.241-0.524-0.527c0-0.29,0.236-0.525,0.524-0.525
		S164.286,194.926,164.286,195.216"/>
	<path d="M159.179,195.553c0,0.286-0.24,0.529-0.527,0.529c-0.29,0-0.524-0.243-0.524-0.529c0-0.289,0.234-0.523,0.524-0.523
		C158.938,195.029,159.179,195.264,159.179,195.553"/>
	<path d="M162.369,187.483c0,0.285-0.239,0.526-0.527,0.526c-0.289,0-0.525-0.241-0.525-0.526c0-0.29,0.236-0.525,0.525-0.525
		C162.13,186.958,162.369,187.193,162.369,187.483"/>
	<path d="M173.541,186.303c0,0.284-0.238,0.528-0.526,0.528c-0.289,0-0.525-0.244-0.525-0.528c0-0.289,0.236-0.524,0.525-0.524
		C173.303,185.778,173.541,186.014,173.541,186.303"/>
	<path d="M167.541,180.147c0,0.283-0.24,0.527-0.528,0.527c-0.289,0-0.524-0.244-0.524-0.527c0-0.29,0.235-0.524,0.524-0.524
		C167.301,179.623,167.541,179.857,167.541,180.147"/>
	<path d="M181.614,174.156c0,0.285-0.239,0.527-0.528,0.527c-0.288,0-0.524-0.242-0.524-0.527c0-0.29,0.236-0.525,0.524-0.525
		C181.375,173.631,181.614,173.866,181.614,174.156"/>
	<path d="M181.815,185.302c0,0.286-0.238,0.528-0.526,0.528c-0.29,0-0.525-0.242-0.525-0.528c0-0.289,0.235-0.524,0.525-0.524
		C181.577,184.777,181.815,185.013,181.815,185.302"/>
	<path d="M189.097,185.584c0,0.285-0.239,0.527-0.527,0.527c-0.29,0-0.525-0.242-0.525-0.527c0-0.291,0.235-0.524,0.525-0.524
		C188.857,185.06,189.097,185.293,189.097,185.584"/>
	<path d="M196.307,186.901c0,0.284-0.239,0.527-0.528,0.527c-0.288,0-0.523-0.243-0.523-0.527c0-0.29,0.235-0.525,0.523-0.525
		C196.067,186.376,196.307,186.611,196.307,186.901"/>
	<path d="M198.408,184.374c0,0.286-0.239,0.529-0.528,0.529c-0.288,0-0.523-0.243-0.523-0.529c0-0.289,0.235-0.523,0.523-0.523
		C198.169,183.851,198.408,184.085,198.408,184.374"/>
	<path d="M195.942,180.828c0,0.285-0.241,0.527-0.528,0.527c-0.289,0-0.523-0.242-0.523-0.527c0-0.29,0.234-0.525,0.523-0.525
		C195.701,180.303,195.942,180.538,195.942,180.828"/>
	<path d="M191.793,179.646c0,0.286-0.24,0.528-0.527,0.528c-0.29,0-0.526-0.242-0.526-0.528c0-0.29,0.236-0.524,0.526-0.524
		C191.553,179.122,191.793,179.356,191.793,179.646"/>
	<path d="M190.912,175.713c0,0.285-0.239,0.528-0.528,0.528s-0.524-0.243-0.524-0.528c0-0.289,0.235-0.524,0.524-0.524
		S190.912,175.424,190.912,175.713"/>
	<path d="M197.043,173.755c0,0.285-0.239,0.528-0.527,0.528c-0.289,0-0.524-0.243-0.524-0.528c0-0.29,0.235-0.525,0.524-0.525
		C196.804,173.229,197.043,173.465,197.043,173.755"/>
	<path d="M200.117,173.201c0,0.285-0.239,0.526-0.527,0.526c-0.289,0-0.524-0.241-0.524-0.526c0-0.29,0.235-0.524,0.524-0.524
		C199.878,172.677,200.117,172.911,200.117,173.201"/>
	<path d="M205.291,171.52c0,0.286-0.239,0.527-0.527,0.527s-0.525-0.241-0.525-0.527c0-0.29,0.237-0.525,0.525-0.525
		S205.291,171.229,205.291,171.52"/>
	<path d="M213.513,187.844c0,0.285-0.239,0.529-0.529,0.529c-0.288,0-0.524-0.244-0.524-0.529c0-0.289,0.236-0.523,0.524-0.523
		C213.273,187.32,213.513,187.555,213.513,187.844"/>
	<path d="M217.584,186.934c0,0.285-0.241,0.528-0.53,0.528c-0.287,0-0.523-0.243-0.523-0.528c0-0.289,0.236-0.524,0.523-0.524
		C217.343,186.409,217.584,186.645,217.584,186.934"/>
	<path d="M224.625,184.634c0,0.284-0.238,0.528-0.526,0.528c-0.289,0-0.525-0.244-0.525-0.528c0-0.289,0.236-0.524,0.525-0.524
		C224.387,184.109,224.625,184.345,224.625,184.634"/>
	<path d="M228.417,188.372c0,0.285-0.239,0.526-0.527,0.526c-0.289,0-0.524-0.241-0.524-0.526c0-0.291,0.235-0.526,0.524-0.526
		C228.178,187.846,228.417,188.081,228.417,188.372"/>
	<path d="M234.119,172.196c0,0.286-0.239,0.528-0.528,0.528s-0.523-0.242-0.523-0.528c0-0.289,0.234-0.523,0.523-0.523
		S234.119,171.907,234.119,172.196"/>
	<path d="M228.117,166.044c0,0.285-0.237,0.527-0.528,0.527c-0.288,0-0.522-0.242-0.522-0.527c0-0.29,0.234-0.524,0.522-0.524
		C227.88,165.52,228.117,165.754,228.117,166.044"/>
	<path d="M219.846,167.044c0,0.284-0.238,0.527-0.527,0.527s-0.524-0.243-0.524-0.527c0-0.291,0.235-0.525,0.524-0.525
		S219.846,166.753,219.846,167.044"/>
	<path d="M212.563,166.764c0,0.285-0.239,0.527-0.528,0.527c-0.29,0-0.525-0.242-0.525-0.527c0-0.29,0.235-0.524,0.525-0.524
		C212.324,166.239,212.563,166.474,212.563,166.764"/>
	<path d="M210.253,164.362c0,0.287-0.238,0.528-0.526,0.528c-0.291,0-0.525-0.241-0.525-0.528c0-0.289,0.234-0.524,0.525-0.524
		C210.015,163.838,210.253,164.073,210.253,164.362"/>
	<path d="M198.406,161.404c0,0.286-0.238,0.528-0.526,0.528c-0.291,0-0.525-0.242-0.525-0.528c0-0.289,0.234-0.524,0.525-0.524
		C198.168,160.88,198.406,161.115,198.406,161.404"/>
	<path d="M188.148,164.5c0,0.283-0.237,0.526-0.526,0.526s-0.524-0.243-0.524-0.526c0-0.291,0.235-0.525,0.524-0.525
		S188.148,164.209,188.148,164.5"/>
	<path d="M184.075,165.41c0,0.285-0.239,0.527-0.528,0.527c-0.288,0-0.524-0.242-0.524-0.527c0-0.291,0.236-0.525,0.524-0.525
		C183.836,164.885,184.075,165.119,184.075,165.41"/>
	<path d="M177.034,167.713c0,0.285-0.239,0.528-0.528,0.528c-0.288,0-0.524-0.243-0.524-0.528c0-0.29,0.236-0.524,0.524-0.524
		C176.795,167.188,177.034,167.423,177.034,167.713"/>
	<path d="M173.241,163.972c0,0.285-0.238,0.527-0.527,0.527s-0.524-0.242-0.524-0.527c0-0.29,0.235-0.525,0.524-0.525
		S173.241,163.682,173.241,163.972"/>
	<path d="M178.512,151.497c0,0.285-0.238,0.528-0.527,0.528s-0.524-0.243-0.524-0.528c0-0.289,0.235-0.523,0.524-0.523
		S178.512,151.208,178.512,151.497"/>
	<path d="M190.909,150.505c0,0.285-0.239,0.528-0.528,0.528c-0.288,0-0.524-0.243-0.524-0.528c0-0.289,0.236-0.524,0.524-0.524
		C190.67,149.98,190.909,150.216,190.909,150.505"/>
	<path d="M181.438,144.836c0,0.285-0.238,0.528-0.526,0.528c-0.29,0-0.526-0.243-0.526-0.528c0-0.29,0.236-0.525,0.526-0.525
		C181.2,144.311,181.438,144.546,181.438,144.836"/>
	<path d="M161.934,141.862c0,0.285-0.24,0.528-0.528,0.528c-0.289,0-0.526-0.243-0.526-0.528c0-0.29,0.237-0.524,0.526-0.524
		C161.693,141.338,161.934,141.572,161.934,141.862"/>
	<path d="M158.554,146.894c0,0.284-0.238,0.527-0.526,0.527c-0.29,0-0.525-0.243-0.525-0.527c0-0.29,0.235-0.525,0.525-0.525
		C158.315,146.368,158.554,146.604,158.554,146.894"/>
	<path d="M194.303,129.364c0,0.283-0.24,0.527-0.528,0.527c-0.289,0-0.524-0.244-0.524-0.527c0-0.29,0.235-0.524,0.524-0.524
		C194.062,128.84,194.303,129.074,194.303,129.364"/>
	<path d="M199.669,138.178c0,0.285-0.238,0.527-0.527,0.527s-0.524-0.242-0.524-0.527c0-0.289,0.235-0.524,0.524-0.524
		S199.669,137.889,199.669,138.178"/>
	<path d="M209.369,131.49c0,0.285-0.238,0.528-0.526,0.528c-0.289,0-0.525-0.243-0.525-0.528c0-0.289,0.236-0.523,0.525-0.523
		C209.131,130.967,209.369,131.201,209.369,131.49"/>
	<path d="M215.788,122.202c0,0.285-0.241,0.528-0.529,0.528s-0.523-0.243-0.523-0.528c0-0.289,0.235-0.524,0.523-0.524
		S215.788,121.913,215.788,122.202"/>
	<path d="M198.408,121.024c0,0.285-0.238,0.527-0.527,0.527s-0.524-0.242-0.524-0.527c0-0.29,0.235-0.525,0.524-0.525
		S198.408,120.734,198.408,121.024"/>
	<path d="M210.747,146.521c0,0.285-0.24,0.528-0.528,0.528c-0.287,0-0.523-0.243-0.523-0.528c0-0.289,0.236-0.524,0.523-0.524
		C210.507,145.996,210.747,146.231,210.747,146.521"/>
	<path d="M225.429,139.435c0,0.285-0.239,0.528-0.527,0.528c-0.29,0-0.524-0.243-0.524-0.528c0-0.289,0.234-0.525,0.524-0.525
		C225.189,138.909,225.429,139.146,225.429,139.435"/>
	<path d="M228.964,143.771c0,0.284-0.241,0.528-0.529,0.528c-0.287,0-0.522-0.244-0.522-0.528c0-0.289,0.235-0.524,0.522-0.524
		C228.723,143.247,228.964,143.482,228.964,143.771"/>
	<path d="M236.801,150.489c0,0.285-0.239,0.528-0.528,0.528c-0.29,0-0.526-0.243-0.526-0.528c0-0.289,0.236-0.523,0.526-0.523
		C236.562,149.966,236.801,150.2,236.801,150.489"/>
	<path d="M242.483,156.792c0,0.284-0.239,0.528-0.529,0.528c-0.289,0-0.523-0.244-0.523-0.528c0-0.29,0.234-0.524,0.523-0.524
		C242.244,156.268,242.483,156.502,242.483,156.792"/>
	<path d="M237.373,157.083c0,0.285-0.238,0.528-0.527,0.528c-0.29,0-0.526-0.243-0.526-0.528c0-0.289,0.236-0.524,0.526-0.524
		C237.135,156.559,237.373,156.794,237.373,157.083"/>
	<path d="M239.291,164.858c0,0.285-0.238,0.528-0.527,0.528c-0.291,0-0.524-0.243-0.524-0.528c0-0.289,0.233-0.524,0.524-0.524
		C239.053,164.334,239.291,164.569,239.291,164.858"/>
	<path d="M240.409,136.584c0,0.285-0.239,0.527-0.526,0.527c-0.291,0-0.525-0.242-0.525-0.527c0-0.29,0.234-0.524,0.525-0.524
		C240.17,136.06,240.409,136.294,240.409,136.584"/>
	<path d="M243.103,205.448c0,0.285-0.237,0.528-0.526,0.528c-0.288,0-0.525-0.243-0.525-0.528c0-0.291,0.237-0.524,0.525-0.524
		C242.865,204.924,243.103,205.157,243.103,205.448"/>
	<path d="M264.951,246.343c0,0.437-0.357,0.79-0.788,0.79c-0.438,0-0.79-0.354-0.79-0.79c0-0.436,0.352-0.79,0.79-0.79
		C264.594,245.553,264.951,245.907,264.951,246.343"/>
	<path d="M254.136,240.004c0,0.438-0.357,0.79-0.788,0.79c-0.438,0-0.791-0.353-0.791-0.79c0-0.435,0.354-0.788,0.791-0.788
		C253.778,239.216,254.136,239.569,254.136,240.004"/>
	<path d="M231.371,251.559c0,0.44-0.354,0.79-0.786,0.79c-0.437,0-0.791-0.35-0.791-0.79c0-0.435,0.354-0.791,0.791-0.791
		C231.017,250.768,231.371,251.124,231.371,251.559"/>
	<path d="M258.307,214.71c0,0.439-0.355,0.791-0.786,0.791c-0.438,0-0.791-0.352-0.791-0.791c0-0.436,0.354-0.789,0.791-0.789
		C257.951,213.921,258.307,214.274,258.307,214.71"/>
	<path d="M232.564,222.566c0,0.439-0.356,0.79-0.787,0.79c-0.439,0-0.793-0.351-0.793-0.79c0-0.435,0.354-0.789,0.793-0.789
		C232.208,221.777,232.564,222.132,232.564,222.566"/>
	<path d="M230.507,229.577c0,0.438-0.357,0.787-0.789,0.787c-0.436,0-0.79-0.35-0.79-0.787c0-0.436,0.354-0.79,0.79-0.79
		C230.149,228.787,230.507,229.142,230.507,229.577"/>
	<path d="M216.993,240.148c0,0.438-0.356,0.789-0.787,0.789c-0.438,0-0.792-0.352-0.792-0.789c0-0.435,0.354-0.79,0.792-0.79
		C216.637,239.358,216.993,239.714,216.993,240.148"/>
	<path d="M217.677,224.659c0,0.438-0.358,0.792-0.789,0.792c-0.436,0-0.792-0.354-0.792-0.792c0-0.436,0.356-0.789,0.792-0.789
		C217.318,223.87,217.677,224.224,217.677,224.659"/>
	<path d="M213.939,219.518c0,0.438-0.356,0.79-0.789,0.79c-0.437,0-0.79-0.352-0.79-0.79c0-0.435,0.354-0.79,0.79-0.79
		C213.583,218.728,213.939,219.083,213.939,219.518"/>
	<path d="M212.98,225.867c0,0.438-0.355,0.79-0.785,0.79c-0.438,0-0.792-0.352-0.792-0.79c0-0.434,0.354-0.787,0.792-0.787
		C212.625,225.08,212.98,225.434,212.98,225.867"/>
	<path d="M228.854,210.148c0,0.438-0.354,0.789-0.786,0.789c-0.438,0-0.792-0.352-0.792-0.789c0-0.436,0.354-0.789,0.792-0.789
		C228.499,209.359,228.854,209.713,228.854,210.148"/>
	<path d="M226.511,200.006c0,0.438-0.356,0.789-0.788,0.789c-0.438,0-0.79-0.351-0.79-0.789c0-0.435,0.353-0.79,0.79-0.79
		C226.154,199.216,226.511,199.571,226.511,200.006"/>
	<path d="M238.423,195.708c0,0.438-0.358,0.79-0.788,0.79c-0.436,0-0.79-0.353-0.79-0.79c0-0.436,0.354-0.789,0.79-0.789
		C238.064,194.919,238.423,195.272,238.423,195.708"/>
	<path d="M239.351,191.007c0,0.439-0.356,0.79-0.786,0.79c-0.439,0-0.792-0.351-0.792-0.79c0-0.436,0.353-0.789,0.792-0.789
		C238.994,190.218,239.351,190.571,239.351,191.007"/>
	<path d="M248.798,195.229c0,0.438-0.356,0.79-0.787,0.79c-0.438,0-0.792-0.352-0.792-0.79c0-0.435,0.354-0.788,0.792-0.788
		C248.441,194.441,248.798,194.795,248.798,195.229"/>
	<path d="M226.485,181.205c0,0.438-0.356,0.79-0.788,0.79c-0.438,0-0.792-0.352-0.792-0.79c0-0.436,0.354-0.789,0.792-0.789
		C226.129,180.416,226.485,180.77,226.485,181.205"/>
	<path d="M222.816,176.636c0,0.439-0.358,0.79-0.79,0.79c-0.438,0-0.791-0.351-0.791-0.79c0-0.436,0.353-0.79,0.791-0.79
		C222.458,175.846,222.816,176.2,222.816,176.636"/>
	<path d="M225.534,172.461c0,0.439-0.355,0.789-0.787,0.789c-0.438,0-0.791-0.35-0.791-0.789c0-0.434,0.353-0.789,0.791-0.789
		C225.179,171.672,225.534,172.027,225.534,172.461"/>
	<path d="M230.341,180.682c0,0.439-0.357,0.79-0.787,0.79c-0.438,0-0.793-0.351-0.793-0.79c0-0.434,0.354-0.789,0.793-0.789
		C229.983,179.893,230.341,180.248,230.341,180.682"/>
	<path d="M218.063,193.116c0,0.438-0.355,0.79-0.787,0.79c-0.438,0-0.792-0.352-0.792-0.79c0-0.435,0.354-0.79,0.792-0.79
		C217.708,192.326,218.063,192.682,218.063,193.116"/>
	<path d="M218.531,198.103c0,0.439-0.356,0.79-0.786,0.79c-0.438,0-0.793-0.351-0.793-0.79c0-0.434,0.354-0.79,0.793-0.79
		C218.175,197.312,218.531,197.669,218.531,198.103"/>
	<path d="M210.253,197.517c0,0.438-0.355,0.788-0.787,0.788c-0.437,0-0.792-0.351-0.792-0.788c0-0.437,0.355-0.79,0.792-0.79
		C209.897,196.727,210.253,197.08,210.253,197.517"/>
	<path d="M207.289,199.639c0,0.439-0.357,0.789-0.786,0.789c-0.439,0-0.794-0.35-0.794-0.789c0-0.436,0.354-0.79,0.794-0.79
		C206.932,198.849,207.289,199.203,207.289,199.639"/>
	<path d="M209.562,204.607c0,0.439-0.357,0.79-0.789,0.79c-0.436,0-0.79-0.351-0.79-0.79c0-0.436,0.354-0.79,0.79-0.79
		C209.204,203.817,209.562,204.172,209.562,204.607"/>
	<path d="M207.524,208.029c0,0.438-0.355,0.789-0.788,0.789c-0.438,0-0.789-0.352-0.789-0.789c0-0.436,0.352-0.789,0.789-0.789
		C207.169,207.24,207.524,207.594,207.524,208.029"/>
	<path d="M201.611,205.827c0,0.438-0.356,0.79-0.786,0.79c-0.439,0-0.794-0.352-0.794-0.79c0-0.435,0.354-0.79,0.794-0.79
		C201.255,205.037,201.611,205.393,201.611,205.827"/>
	<path d="M194.123,203.85c0,0.438-0.356,0.79-0.787,0.79c-0.438,0-0.793-0.352-0.793-0.79c0-0.436,0.354-0.79,0.793-0.79
		C193.767,203.06,194.123,203.414,194.123,203.85"/>
	<path d="M192.818,198.043c0,0.438-0.357,0.789-0.788,0.789c-0.438,0-0.792-0.351-0.792-0.789c0-0.436,0.354-0.789,0.792-0.789
		C192.461,197.254,192.818,197.607,192.818,198.043"/>
	<path d="M198.236,193.528c0,0.438-0.358,0.788-0.787,0.788c-0.438,0-0.793-0.351-0.793-0.788c0-0.436,0.355-0.79,0.793-0.79
		C197.878,192.738,198.236,193.093,198.236,193.528"/>
	<path d="M201.61,183.6c0,0.438-0.356,0.79-0.786,0.79c-0.439,0-0.792-0.352-0.792-0.79c0-0.436,0.353-0.79,0.792-0.79
		C201.254,182.81,201.61,183.164,201.61,183.6"/>
	<path d="M205.318,185.562c0,0.438-0.358,0.79-0.788,0.79c-0.437,0-0.791-0.352-0.791-0.79c0-0.436,0.354-0.79,0.791-0.79
		C204.96,184.771,205.318,185.126,205.318,185.562"/>
	<path d="M211.327,177.413c0,0.438-0.356,0.79-0.787,0.79c-0.438,0-0.792-0.352-0.792-0.79c0-0.436,0.354-0.79,0.792-0.79
		C210.971,176.623,211.327,176.978,211.327,177.413"/>
	<path d="M204.605,175.122c0,0.439-0.358,0.79-0.787,0.79c-0.439,0-0.792-0.351-0.792-0.79c0-0.435,0.353-0.79,0.792-0.79
		C204.247,174.332,204.605,174.688,204.605,175.122"/>
	<path d="M215.17,165.043c0,0.439-0.357,0.79-0.787,0.79c-0.437,0-0.79-0.351-0.79-0.79c0-0.436,0.354-0.79,0.79-0.79
		C214.812,164.253,215.17,164.607,215.17,165.043"/>
	<path d="M222.879,163.88c0,0.439-0.355,0.79-0.786,0.79c-0.438,0-0.791-0.351-0.791-0.79c0-0.435,0.353-0.789,0.791-0.789
		C222.523,163.091,222.879,163.445,222.879,163.88"/>
	<path d="M232.44,170.487c0,0.438-0.357,0.789-0.789,0.789c-0.436,0-0.79-0.351-0.79-0.789c0-0.436,0.354-0.789,0.79-0.789
		C232.083,169.698,232.44,170.052,232.44,170.487"/>
	<path d="M226.923,157.061c0,0.439-0.356,0.79-0.786,0.79c-0.438,0-0.792-0.351-0.792-0.79c0-0.435,0.354-0.789,0.792-0.789
		C226.566,156.271,226.923,156.626,226.923,157.061"/>
	<path d="M225.838,152.81c0,0.438-0.357,0.789-0.788,0.789c-0.438,0-0.791-0.351-0.791-0.789c0-0.436,0.353-0.789,0.791-0.789
		C225.48,152.021,225.838,152.374,225.838,152.81"/>
	<path d="M222.816,154.561c0,0.438-0.358,0.789-0.79,0.789c-0.438,0-0.791-0.351-0.791-0.789c0-0.435,0.353-0.79,0.791-0.79
		C222.458,153.771,222.816,154.126,222.816,154.561"/>
	<path d="M216.756,159.638c0,0.439-0.355,0.789-0.787,0.789c-0.438,0-0.792-0.35-0.792-0.789c0-0.436,0.354-0.79,0.792-0.79
		C216.4,158.848,216.756,159.202,216.756,159.638"/>
	<path d="M208.624,153.566c0,0.438-0.355,0.789-0.786,0.789c-0.438,0-0.792-0.351-0.792-0.789c0-0.435,0.354-0.789,0.792-0.789
		C208.269,152.777,208.624,153.132,208.624,153.566"/>
	<path d="M202.389,161.531c0,0.438-0.358,0.789-0.788,0.789c-0.438,0-0.793-0.351-0.793-0.789c0-0.435,0.355-0.788,0.793-0.788
		C202.03,160.743,202.389,161.097,202.389,161.531"/>
	<path d="M194.896,152.709c0,0.438-0.356,0.789-0.785,0.789c-0.439,0-0.793-0.352-0.793-0.789c0-0.436,0.354-0.789,0.793-0.789
		C194.539,151.92,194.896,152.273,194.896,152.709"/>
	<path d="M191.933,154.833c0,0.439-0.357,0.79-0.788,0.79c-0.438,0-0.791-0.351-0.791-0.79c0-0.434,0.354-0.788,0.791-0.788
		C191.575,154.045,191.933,154.399,191.933,154.833"/>
	<path d="M192.625,147.738c0,0.438-0.358,0.79-0.788,0.79c-0.438,0-0.792-0.352-0.792-0.79c0-0.435,0.354-0.788,0.792-0.788
		C192.267,146.95,192.625,147.304,192.625,147.738"/>
	<path d="M194.659,144.323c0,0.439-0.355,0.79-0.787,0.79c-0.438,0-0.792-0.351-0.792-0.79c0-0.435,0.354-0.79,0.792-0.79
		C194.304,143.533,194.659,143.889,194.659,144.323"/>
	<path d="M200.573,146.521c0,0.438-0.356,0.79-0.786,0.79c-0.439,0-0.793-0.352-0.793-0.79c0-0.436,0.354-0.789,0.793-0.789
		C200.217,145.732,200.573,146.086,200.573,146.521"/>
	<path d="M208.062,148.497c0,0.438-0.357,0.789-0.786,0.789c-0.439,0-0.793-0.351-0.793-0.789c0-0.436,0.354-0.789,0.793-0.789
		C207.705,147.708,208.062,148.062,208.062,148.497"/>
	<path d="M210.269,138.79c0,0.438-0.355,0.789-0.786,0.789c-0.438,0-0.793-0.352-0.793-0.789c0-0.435,0.355-0.789,0.793-0.789
		C209.913,138.001,210.269,138.355,210.269,138.79"/>
	<path d="M224.995,143.448c0,0.438-0.357,0.79-0.788,0.79c-0.438,0-0.792-0.353-0.792-0.79c0-0.435,0.354-0.789,0.792-0.789
		C224.638,142.659,224.995,143.014,224.995,143.448"/>
	<path d="M232.587,145.829c0,0.439-0.356,0.789-0.787,0.789c-0.438,0-0.791-0.35-0.791-0.789c0-0.436,0.353-0.789,0.791-0.789
		C232.23,145.04,232.587,145.394,232.587,145.829"/>
	<path d="M240.863,152.957c0,0.439-0.356,0.79-0.788,0.79c-0.438,0-0.791-0.351-0.791-0.79c0-0.435,0.353-0.789,0.791-0.789
		C240.507,152.168,240.863,152.522,240.863,152.957"/>
	<path d="M242.198,147.684c0,0.438-0.355,0.789-0.784,0.789c-0.439,0-0.794-0.351-0.794-0.789c0-0.436,0.354-0.79,0.794-0.79
		C241.843,146.894,242.198,147.248,242.198,147.684"/>
	<path d="M243.682,142.038c0,0.439-0.355,0.79-0.787,0.79c-0.439,0-0.792-0.351-0.792-0.79c0-0.435,0.353-0.789,0.792-0.789
		C243.326,141.249,243.682,141.604,243.682,142.038"/>
	<path d="M249.033,140.488c0,0.439-0.357,0.789-0.788,0.789c-0.438,0-0.792-0.35-0.792-0.789c0-0.435,0.354-0.789,0.792-0.789
		C248.676,139.699,249.033,140.054,249.033,140.488"/>
	<path d="M254.242,144.757c0,0.439-0.356,0.79-0.787,0.79c-0.438,0-0.792-0.351-0.792-0.79c0-0.435,0.354-0.789,0.792-0.789
		C253.886,143.968,254.242,144.322,254.242,144.757"/>
	<path d="M252.968,152.049c0,0.439-0.359,0.79-0.788,0.79c-0.438,0-0.792-0.351-0.792-0.79c0-0.434,0.354-0.788,0.792-0.788
		C252.608,151.261,252.968,151.615,252.968,152.049"/>
	<path d="M256.119,129.784c0,0.439-0.357,0.79-0.788,0.79c-0.438,0-0.792-0.351-0.792-0.79c0-0.435,0.354-0.788,0.792-0.788
		C255.762,128.996,256.119,129.35,256.119,129.784"/>
	<path d="M270.003,116.68c0,0.439-0.357,0.79-0.786,0.79c-0.438,0-0.793-0.351-0.793-0.79c0-0.435,0.354-0.788,0.793-0.788
		C269.646,115.892,270.003,116.245,270.003,116.68"/>
	<path d="M244.519,122.837c0,0.438-0.357,0.79-0.786,0.79c-0.438,0-0.793-0.352-0.793-0.79c0-0.435,0.355-0.789,0.793-0.789
		C244.161,122.048,244.519,122.402,244.519,122.837"/>
	<path d="M238.787,127.238c0,0.438-0.356,0.79-0.787,0.79c-0.438,0-0.792-0.352-0.792-0.79c0-0.435,0.354-0.79,0.792-0.79
		C238.431,126.448,238.787,126.804,238.787,127.238"/>
	<path d="M236.426,116.227c0,0.438-0.358,0.789-0.786,0.789c-0.439,0-0.792-0.351-0.792-0.789c0-0.436,0.353-0.79,0.792-0.79
		C236.067,115.437,236.426,115.791,236.426,116.227"/>
	<path d="M246.283,102.777c0,0.438-0.355,0.79-0.787,0.79c-0.439,0-0.792-0.352-0.792-0.79c0-0.435,0.353-0.79,0.792-0.79
		C245.928,101.987,246.283,102.343,246.283,102.777"/>
	<path d="M228.738,101.568c0,0.438-0.355,0.789-0.787,0.789c-0.438,0-0.79-0.351-0.79-0.789c0-0.436,0.353-0.789,0.79-0.789
		C228.383,100.779,228.738,101.133,228.738,101.568"/>
	<path d="M218.193,115.756c0,0.438-0.357,0.79-0.787,0.79c-0.438,0-0.792-0.352-0.792-0.79c0-0.436,0.354-0.79,0.792-0.79
		C217.836,114.966,218.193,115.32,218.193,115.756"/>
	<path d="M224.069,127.289c0,0.438-0.355,0.79-0.786,0.79c-0.438,0-0.792-0.352-0.792-0.79c0-0.436,0.354-0.789,0.792-0.789
		C223.714,126.5,224.069,126.854,224.069,127.289"/>
	<path d="M219.734,129.503c0,0.438-0.356,0.789-0.786,0.789c-0.438,0-0.793-0.351-0.793-0.789c0-0.435,0.354-0.789,0.793-0.789
		C219.378,128.714,219.734,129.068,219.734,129.503"/>
	<path d="M207.561,126.109c0,0.438-0.356,0.79-0.788,0.79c-0.438,0-0.792-0.352-0.792-0.79c0-0.436,0.354-0.789,0.792-0.789
		C207.204,125.32,207.561,125.674,207.561,126.109"/>
	<path d="M189.207,126.482c0,0.438-0.358,0.789-0.789,0.789c-0.438,0-0.791-0.351-0.791-0.789c0-0.436,0.354-0.79,0.791-0.79
		C188.849,125.692,189.207,126.047,189.207,126.482"/>
	<path d="M185.193,112.202c0,0.439-0.356,0.79-0.787,0.79c-0.438,0-0.791-0.351-0.791-0.79c0-0.436,0.354-0.789,0.791-0.789
		C184.837,111.413,185.193,111.767,185.193,112.202"/>
	<path d="M184.508,127.688c0,0.438-0.357,0.789-0.787,0.789c-0.438,0-0.792-0.351-0.792-0.789c0-0.435,0.354-0.789,0.792-0.789
		C184.15,126.898,184.508,127.253,184.508,127.688"/>
	<path d="M188.246,132.833c0,0.439-0.357,0.79-0.787,0.79c-0.438,0-0.791-0.351-0.791-0.79c0-0.436,0.353-0.79,0.791-0.79
		C187.889,132.043,188.246,132.397,188.246,132.833"/>
	<path d="M171.683,122.77c0,0.438-0.356,0.79-0.787,0.79c-0.438,0-0.792-0.352-0.792-0.79c0-0.436,0.354-0.79,0.792-0.79
		C171.326,121.979,171.683,122.334,171.683,122.77"/>
	<path d="M169.618,129.781c0,0.438-0.357,0.79-0.789,0.79c-0.438,0-0.791-0.352-0.791-0.79c0-0.435,0.354-0.789,0.791-0.789
		C169.261,128.992,169.618,129.347,169.618,129.781"/>
	<path d="M170.811,100.789c0,0.438-0.358,0.789-0.788,0.789c-0.438,0-0.792-0.351-0.792-0.789c0-0.436,0.354-0.789,0.792-0.789
		C170.452,100,170.811,100.354,170.811,100.789"/>
	<path d="M139.429,105.949c0,0.438-0.357,0.789-0.788,0.789c-0.437,0-0.791-0.351-0.791-0.789c0-0.435,0.354-0.79,0.791-0.79
		C139.071,105.159,139.429,105.515,139.429,105.949"/>
	<path d="M148.052,112.349c0,0.438-0.355,0.79-0.787,0.79c-0.438,0-0.792-0.352-0.792-0.79c0-0.435,0.354-0.789,0.792-0.789
		C147.696,111.56,148.052,111.914,148.052,112.349"/>
	<path d="M143.879,137.638c0,0.439-0.357,0.79-0.788,0.79c-0.438,0-0.791-0.351-0.791-0.79c0-0.436,0.354-0.789,0.791-0.789
		C143.521,136.849,143.879,137.202,143.879,137.638"/>
	<path d="M173.331,142.196c0,0.439-0.358,0.79-0.787,0.79c-0.438,0-0.791-0.351-0.791-0.79c0-0.435,0.353-0.789,0.791-0.789
		C172.973,141.407,173.331,141.762,173.331,142.196"/>
	<path d="M175.678,152.342c0,0.438-0.355,0.79-0.788,0.79c-0.437,0-0.791-0.353-0.791-0.79c0-0.436,0.354-0.79,0.791-0.79
		C175.322,151.552,175.678,151.906,175.678,152.342"/>
	<path d="M183.653,154.244c0,0.439-0.356,0.789-0.787,0.789c-0.438,0-0.791-0.35-0.791-0.789c0-0.436,0.353-0.789,0.791-0.789
		C183.297,153.455,183.653,153.809,183.653,154.244"/>
	<path d="M184.124,159.237c0,0.438-0.356,0.79-0.787,0.79c-0.438,0-0.792-0.352-0.792-0.79c0-0.436,0.354-0.789,0.792-0.789
		C183.768,158.448,184.124,158.802,184.124,159.237"/>
	<path d="M163.762,156.639c0,0.439-0.355,0.79-0.786,0.79c-0.438,0-0.792-0.351-0.792-0.79c0-0.434,0.354-0.788,0.792-0.788
		C163.406,155.851,163.762,156.205,163.762,156.639"/>
	<path d="M153.391,157.118c0,0.438-0.358,0.79-0.788,0.79c-0.437,0-0.791-0.352-0.791-0.79c0-0.436,0.354-0.789,0.791-0.789
		C153.032,156.329,153.391,156.683,153.391,157.118"/>
	<path d="M162.835,161.344c0,0.438-0.356,0.788-0.787,0.788c-0.438,0-0.792-0.351-0.792-0.788c0-0.436,0.354-0.79,0.792-0.79
		C162.479,160.554,162.835,160.908,162.835,161.344"/>
	<path d="M175.699,171.145c0,0.439-0.357,0.79-0.787,0.79c-0.439,0-0.792-0.351-0.792-0.79c0-0.436,0.353-0.789,0.792-0.789
		C175.342,170.355,175.699,170.709,175.699,171.145"/>
	<path d="M171.846,171.665c0,0.438-0.356,0.79-0.787,0.79c-0.439,0-0.793-0.352-0.793-0.79c0-0.436,0.354-0.789,0.793-0.789
		C171.489,170.876,171.846,171.229,171.846,171.665"/>
	<path d="M176.651,179.886c0,0.438-0.357,0.789-0.787,0.789c-0.438,0-0.792-0.351-0.792-0.789c0-0.436,0.354-0.789,0.792-0.789
		C176.294,179.097,176.651,179.45,176.651,179.886"/>
	<path d="M169.745,181.859c0,0.438-0.355,0.789-0.786,0.789c-0.438,0-0.792-0.352-0.792-0.789c0-0.436,0.354-0.79,0.792-0.79
		C169.39,181.069,169.745,181.424,169.745,181.859"/>
	<path d="M179.306,188.466c0,0.438-0.356,0.789-0.787,0.789c-0.438,0-0.792-0.351-0.792-0.789c0-0.436,0.354-0.79,0.792-0.79
		C178.949,187.676,179.306,188.03,179.306,188.466"/>
	<path d="M187.015,187.308c0,0.438-0.357,0.79-0.788,0.79c-0.437,0-0.79-0.353-0.79-0.79c0-0.436,0.354-0.789,0.79-0.789
		C186.657,186.519,187.015,186.872,187.015,187.308"/>
	<path d="M185.429,192.711c0,0.438-0.356,0.79-0.788,0.79c-0.438,0-0.791-0.352-0.791-0.79c0-0.435,0.353-0.789,0.791-0.789
		C185.072,191.922,185.429,192.276,185.429,192.711"/>
	<path d="M179.369,197.785c0,0.439-0.356,0.79-0.787,0.79c-0.438,0-0.791-0.351-0.791-0.79c0-0.434,0.354-0.789,0.791-0.789
		C179.013,196.996,179.369,197.352,179.369,197.785"/>
	<path d="M175.262,195.282c0,0.439-0.357,0.79-0.788,0.79c-0.438,0-0.791-0.351-0.791-0.79c0-0.435,0.354-0.79,0.791-0.79
		C174.904,194.492,175.262,194.848,175.262,195.282"/>
	<path d="M176.346,199.536c0,0.438-0.355,0.789-0.786,0.789c-0.438,0-0.792-0.352-0.792-0.789c0-0.436,0.354-0.79,0.792-0.79
		C175.99,198.746,176.346,199.101,176.346,199.536"/>
	<path d="M161.324,199.386c0,0.438-0.357,0.789-0.788,0.789c-0.438,0-0.792-0.351-0.792-0.789c0-0.436,0.354-0.789,0.792-0.789
		C160.967,198.597,161.324,198.95,161.324,199.386"/>
	<path d="M149.216,200.3c0,0.438-0.356,0.789-0.788,0.789c-0.438,0-0.792-0.351-0.792-0.789c0-0.436,0.354-0.79,0.792-0.79
		C148.859,199.51,149.216,199.864,149.216,200.3"/>
	<path d="M147.94,207.589c0,0.438-0.356,0.79-0.786,0.79c-0.437,0-0.792-0.353-0.792-0.79c0-0.436,0.355-0.79,0.792-0.79
		C147.584,206.799,147.94,207.153,147.94,207.589"/>
	<path d="M158.501,210.307c0,0.438-0.356,0.79-0.787,0.79c-0.438,0-0.792-0.352-0.792-0.79c0-0.435,0.354-0.79,0.792-0.79
		C158.145,209.517,158.501,209.872,158.501,210.307"/>
	<path d="M159.986,204.66c0,0.438-0.356,0.79-0.787,0.79c-0.438,0-0.792-0.352-0.792-0.79c0-0.436,0.354-0.79,0.792-0.79
		C159.63,203.87,159.986,204.225,159.986,204.66"/>
	<path d="M169.596,206.521c0,0.437-0.356,0.787-0.787,0.787c-0.438,0-0.792-0.351-0.792-0.787c0-0.436,0.354-0.79,0.792-0.79
		C169.239,205.73,169.596,206.085,169.596,206.521"/>
	<path d="M177.19,208.905c0,0.438-0.357,0.788-0.788,0.788c-0.438,0-0.792-0.351-0.792-0.788c0-0.435,0.354-0.79,0.792-0.79
		C176.833,208.115,177.19,208.471,177.19,208.905"/>
	<path d="M153.155,211.857c0,0.439-0.357,0.79-0.787,0.79c-0.438,0-0.792-0.351-0.792-0.79c0-0.434,0.354-0.789,0.792-0.789
		C152.798,211.068,153.155,211.424,153.155,211.857"/>
	<path d="M146.064,222.559c0,0.439-0.356,0.79-0.786,0.79c-0.438,0-0.791-0.351-0.791-0.79c0-0.436,0.353-0.789,0.791-0.789
		C145.708,221.77,146.064,222.123,146.064,222.559"/>
	<path d="M132.183,235.665c0,0.438-0.355,0.79-0.787,0.79c-0.438,0-0.792-0.352-0.792-0.79c0-0.434,0.354-0.79,0.792-0.79
		C131.827,234.875,132.183,235.231,132.183,235.665"/>
	<path d="M157.667,229.513c0,0.438-0.356,0.789-0.786,0.789c-0.438,0-0.792-0.351-0.792-0.789c0-0.433,0.354-0.789,0.792-0.789
		C157.311,228.724,157.667,229.08,157.667,229.513"/>
	<path d="M163.401,225.107c0,0.44-0.357,0.79-0.788,0.79c-0.438,0-0.792-0.35-0.792-0.79c0-0.435,0.354-0.788,0.792-0.788
		C163.044,224.319,163.401,224.673,163.401,225.107"/>
	<path d="M178.113,225.064c0,0.438-0.356,0.79-0.786,0.79c-0.438,0-0.792-0.352-0.792-0.79c0-0.436,0.354-0.79,0.792-0.79
		C177.757,224.274,178.113,224.629,178.113,225.064"/>
	<path d="M182.451,222.845c0,0.438-0.357,0.79-0.788,0.79c-0.438,0-0.791-0.352-0.791-0.79c0-0.435,0.354-0.789,0.791-0.789
		C182.094,222.056,182.451,222.41,182.451,222.845"/>
	<path d="M191.916,213.56c0,0.438-0.356,0.791-0.787,0.791c-0.438,0-0.791-0.354-0.791-0.791c0-0.436,0.354-0.789,0.791-0.789
		C191.56,212.771,191.916,213.124,191.916,213.56"/>
	<path d="M194.625,226.237c0,0.438-0.357,0.79-0.788,0.79c-0.438,0-0.791-0.353-0.791-0.79c0-0.435,0.354-0.787,0.791-0.787
		C194.268,225.45,194.625,225.803,194.625,226.237"/>
	<path d="M183.989,236.591c0,0.438-0.358,0.789-0.788,0.789c-0.438,0-0.791-0.352-0.791-0.789c0-0.437,0.354-0.791,0.791-0.791
		C183.631,235.8,183.989,236.154,183.989,236.591"/>
	<path d="M165.756,236.128c0,0.439-0.355,0.791-0.786,0.791c-0.438,0-0.791-0.352-0.791-0.791c0-0.436,0.353-0.789,0.791-0.789
		C165.4,235.339,165.756,235.692,165.756,236.128"/>
	<path d="M155.901,249.568c0,0.438-0.356,0.79-0.787,0.79c-0.438,0-0.792-0.352-0.792-0.79c0-0.436,0.354-0.791,0.792-0.791
		C155.545,248.777,155.901,249.133,155.901,249.568"/>
	<path d="M173.449,250.783c0,0.438-0.356,0.789-0.787,0.789c-0.438,0-0.791-0.351-0.791-0.789c0-0.436,0.353-0.79,0.791-0.79
		C173.093,249.993,173.449,250.348,173.449,250.783"/>
</g>
</svg>
